G04 DesignSpark PCB Gerber Version 9.0 Build 5115 *
G04 #@! TF.Part,Single*
G04 #@! TF.FileFunction,Legend,Bot *
G04 #@! TF.FilePolarity,Positive *
%FSLAX35Y35*%
%MOIN*%
%ADD19C,0.00500*%
%ADD25C,0.00800*%
X0Y0D02*
D02*
D19*
X46163Y34646D02*
X42413D01*
Y32459*
X42725Y31833*
X43350Y31521*
X43975Y31833*
X44287Y32459*
Y34646*
Y32459D02*
X46163Y31521D01*
Y29021D02*
Y27771D01*
Y28396D02*
X42413D01*
X43037Y29021*
X46163Y24646D02*
X42413Y22146D01*
Y24646*
X46163Y39646D02*
X42413D01*
Y37459*
X42725Y36833*
X43350Y36521*
X43975Y36833*
X44287Y37459*
Y39646*
Y37459D02*
X46163Y36521D01*
Y34021D02*
Y32771D01*
Y33396D02*
X42413D01*
X43037Y34021*
X46163Y29021D02*
Y27771D01*
Y28396D02*
X42413D01*
X43037Y29021*
X46163Y44646D02*
X42413D01*
Y42459*
X42725Y41833*
X43350Y41521*
X43975Y41833*
X44287Y42459*
Y44646*
Y42459D02*
X46163Y41521D01*
Y39021D02*
Y37771D01*
Y38396D02*
X42413D01*
X43037Y39021*
X46163Y49646D02*
X42413D01*
Y47459*
X42725Y46833*
X43350Y46521*
X43975Y46833*
X44287Y47459*
Y49646*
Y47459D02*
X46163Y46521D01*
Y42146D02*
Y44646D01*
X43975Y42459*
X43350Y42146*
X42725Y42459*
X42413Y43083*
Y44021*
X42725Y44646*
X46163Y54646D02*
X42413D01*
Y52459*
X42725Y51833*
X43350Y51521*
X43975Y51833*
X44287Y52459*
Y54646*
Y52459D02*
X46163Y51521D01*
X45850Y49333D02*
X46163Y48709D01*
Y48083*
X45850Y47459*
X45225Y47146*
X44600Y47459*
X44287Y48083*
Y48709*
Y48083D02*
X43975Y47459D01*
X43350Y47146*
X42725Y47459*
X42413Y48083*
Y48709*
X42725Y49333*
X46163Y59646D02*
X42413D01*
Y57459*
X42725Y56833*
X43350Y56521*
X43975Y56833*
X44287Y57459*
Y59646*
Y57459D02*
X46163Y56521D01*
Y53083D02*
X42413D01*
X44913Y54646*
Y52146*
X46163Y64646D02*
X42413D01*
Y62459*
X42725Y61833*
X43350Y61521*
X43975Y61833*
X44287Y62459*
Y64646*
Y62459D02*
X46163Y61521D01*
Y59021D02*
Y57771D01*
Y58396D02*
X42413D01*
X43037Y59021*
X45850Y54333D02*
X46163Y53709D01*
Y53083*
X45850Y52459*
X45225Y52146*
X43350*
X42725Y52459*
X42413Y53083*
Y53709*
X42725Y54333*
X43350Y54646*
X45225*
X45850Y54333*
X42725Y52459*
X46163Y99646D02*
X42413D01*
Y97459*
X42725Y96833*
X43350Y96521*
X43975Y96833*
X44287Y97459*
Y99646*
Y97459D02*
X46163Y96521D01*
Y94021D02*
Y92771D01*
Y93396D02*
X42413D01*
X43037Y94021*
X45850Y89333D02*
X46163Y88709D01*
Y88083*
X45850Y87459*
X45225Y87146*
X44600Y87459*
X44287Y88083*
Y88709*
Y88083D02*
X43975Y87459D01*
X43350Y87146*
X42725Y87459*
X42413Y88083*
Y88709*
X42725Y89333*
X45537Y101521D02*
X45850Y101833D01*
X46163Y102459*
Y103396*
X45850Y104021*
X45537Y104333*
X44913Y104646*
X43663*
X43037Y104333*
X42725Y104021*
X42413Y103396*
Y102459*
X42725Y101833*
X43037Y101521*
X45850Y99646D02*
X46163Y99021D01*
Y98083*
X45850Y97459*
X45225Y97146*
X44913*
X44287Y97459*
X43975Y98083*
Y99646*
X42413*
Y97146*
X45537Y106521D02*
X45850Y106833D01*
X46163Y107459*
Y108396*
X45850Y109021*
X45537Y109333*
X44913Y109646*
X43663*
X43037Y109333*
X42725Y109021*
X42413Y108396*
Y107459*
X42725Y106833*
X43037Y106521*
X45225Y104646D02*
X44600Y104333D01*
X44287Y103709*
Y103083*
X44600Y102459*
X45225Y102146*
X45850Y102459*
X46163Y103083*
Y103709*
X45850Y104333*
X45225Y104646*
X44287*
X43350Y104333*
X42725Y103709*
X42413Y103083*
X45537Y111521D02*
X45850Y111833D01*
X46163Y112459*
Y113396*
X45850Y114021*
X45537Y114333*
X44913Y114646*
X43663*
X43037Y114333*
X42725Y114021*
X42413Y113396*
Y112459*
X42725Y111833*
X43037Y111521*
X46163Y109646D02*
X42413Y107146D01*
Y109646*
X45537Y116521D02*
X45850Y116833D01*
X46163Y117459*
Y118396*
X45850Y119021*
X45537Y119333*
X44913Y119646*
X43663*
X43037Y119333*
X42725Y119021*
X42413Y118396*
Y117459*
X42725Y116833*
X43037Y116521*
X44287Y113709D02*
Y113083D01*
X43975Y112459*
X43350Y112146*
X42725Y112459*
X42413Y113083*
Y113709*
X42725Y114333*
X43350Y114646*
X43975Y114333*
X44287Y113709*
X44600Y114333*
X45225Y114646*
X45850Y114333*
X46163Y113709*
Y113083*
X45850Y112459*
X45225Y112146*
X44600Y112459*
X44287Y113083*
X46163Y124646D02*
X42413D01*
Y122459*
X42725Y121833*
X43350Y121521*
X43975Y121833*
X44287Y122459*
Y124646*
Y122459D02*
X46163Y121521D01*
Y119021D02*
Y117771D01*
Y118396D02*
X42413D01*
X43037Y119021*
X46163Y112146D02*
Y114646D01*
X43975Y112459*
X43350Y112146*
X42725Y112459*
X42413Y113083*
Y114021*
X42725Y114646*
X49313Y115621D02*
X49000Y115309D01*
X48687Y114683*
Y113746*
X49000Y113121*
X49313Y112809*
X49937Y112496*
X51187*
X51813Y112809*
X52125Y113121*
X52437Y113746*
Y114683*
X52125Y115309*
X51813Y115621*
X48687Y118121D02*
Y119371D01*
Y118746D02*
X52437D01*
X51813Y118121*
X51400Y97346D02*
Y102646D01*
X39100*
Y97346*
X51400*
Y102346D02*
Y107646D01*
X39100*
Y102346*
X51400*
Y107346D02*
Y112646D01*
X39100*
Y107346*
X51400*
Y112346D02*
Y117646D01*
X39100*
Y112346*
X51400*
X51600Y102646D02*
Y97346D01*
X63900*
Y102646*
X51600*
Y107646D02*
Y102346D01*
X63900*
Y107646*
X51600*
Y112646D02*
Y107346D01*
X63900*
Y112646*
X51600*
Y117646D02*
Y112346D01*
X63900*
Y117646*
X51600*
X54337Y35346D02*
X58087D01*
Y37533*
X57775Y38159*
X57150Y38471*
X56525Y38159*
X56213Y37533*
Y35346*
Y37533D02*
X54337Y38471D01*
X56213Y41283D02*
Y41909D01*
X56525Y42533*
X57150Y42846*
X57775Y42533*
X58087Y41909*
Y41283*
X57775Y40659*
X57150Y40346*
X56525Y40659*
X56213Y41283*
X55900Y40659*
X55275Y40346*
X54650Y40659*
X54337Y41283*
Y41909*
X54650Y42533*
X55275Y42846*
X55900Y42533*
X56213Y41909*
X54337Y40346D02*
X58087D01*
Y42533*
X57775Y43159*
X57150Y43471*
X56525Y43159*
X56213Y42533*
Y40346*
Y42533D02*
X54337Y43471D01*
Y45346D02*
X58087Y47846D01*
Y45346*
X54337D02*
X58087D01*
Y47533*
X57775Y48159*
X57150Y48471*
X56525Y48159*
X56213Y47533*
Y45346*
Y47533D02*
X54337Y48471D01*
X55275Y50346D02*
X55900Y50659D01*
X56213Y51283*
Y51909*
X55900Y52533*
X55275Y52846*
X54650Y52533*
X54337Y51909*
Y51283*
X54650Y50659*
X55275Y50346*
X56213*
X57150Y50659*
X57775Y51283*
X58087Y51909*
X54337Y50346D02*
X58087D01*
Y52533*
X57775Y53159*
X57150Y53471*
X56525Y53159*
X56213Y52533*
Y50346*
Y52533D02*
X54337Y53471D01*
X54650Y55346D02*
X54337Y55971D01*
Y56909*
X54650Y57533*
X55275Y57846*
X55587*
X56213Y57533*
X56525Y56909*
Y55346*
X58087*
Y57846*
X54337Y55346D02*
X58087D01*
Y57533*
X57775Y58159*
X57150Y58471*
X56525Y58159*
X56213Y57533*
Y55346*
Y57533D02*
X54337Y58471D01*
Y61283D02*
X54650Y61909D01*
X55275Y62533*
X56213Y62846*
X57150*
X57775Y62533*
X58087Y61909*
Y61283*
X57775Y60659*
X57150Y60346*
X56525Y60659*
X56213Y61283*
Y61909*
X56525Y62533*
X57150Y62846*
X56837Y85346D02*
X60587D01*
Y87533*
X60275Y88159*
X59650Y88471*
X59025Y88159*
X58713Y87533*
Y85346*
Y87533D02*
X56837Y88471D01*
Y90971D02*
Y92221D01*
Y91596D02*
X60587D01*
X59963Y90971*
X57150Y95346D02*
X56837Y95971D01*
Y96909*
X57150Y97533*
X57775Y97846*
X58087*
X58713Y97533*
X59025Y96909*
Y95346*
X60587*
Y97846*
X56837Y90346D02*
X60587D01*
Y92533*
X60275Y93159*
X59650Y93471*
X59025Y93159*
X58713Y92533*
Y90346*
Y92533D02*
X56837Y93471D01*
Y95971D02*
Y97221D01*
Y96596D02*
X60587D01*
X59963Y95971*
X56837Y101909D02*
X60587D01*
X58087Y100346*
Y102846*
X57463Y98471D02*
X57150Y98159D01*
X56837Y97533*
Y96596*
X57150Y95971*
X57463Y95659*
X58087Y95346*
X59337*
X59963Y95659*
X60275Y95971*
X60587Y96596*
Y97533*
X60275Y98159*
X59963Y98471*
X56837Y101909D02*
X60587D01*
X58087Y100346*
Y102846*
X57463Y103471D02*
X57150Y103159D01*
X56837Y102533*
Y101596*
X57150Y100971*
X57463Y100659*
X58087Y100346*
X59337*
X59963Y100659*
X60275Y100971*
X60587Y101596*
Y102533*
X60275Y103159*
X59963Y103471*
X57150Y105659D02*
X56837Y106283D01*
Y106909*
X57150Y107533*
X57775Y107846*
X58400Y107533*
X58713Y106909*
Y106283*
Y106909D02*
X59025Y107533D01*
X59650Y107846*
X60275Y107533*
X60587Y106909*
Y106283*
X60275Y105659*
X57463Y108471D02*
X57150Y108159D01*
X56837Y107533*
Y106596*
X57150Y105971*
X57463Y105659*
X58087Y105346*
X59337*
X59963Y105659*
X60275Y105971*
X60587Y106596*
Y107533*
X60275Y108159*
X59963Y108471*
X56837Y112846D02*
Y110346D01*
X59025Y112533*
X59650Y112846*
X60275Y112533*
X60587Y111909*
Y110971*
X60275Y110346*
X56837Y115346D02*
X60587D01*
Y117533*
X60275Y118159*
X59650Y118471*
X59025Y118159*
X58713Y117533*
Y115346*
Y117533D02*
X56837Y118471D01*
Y120971D02*
Y122221D01*
Y121596D02*
X60587D01*
X59963Y120971*
X57775Y125346D02*
X58400Y125659D01*
X58713Y126283*
Y126909*
X58400Y127533*
X57775Y127846*
X57150Y127533*
X56837Y126909*
Y126283*
X57150Y125659*
X57775Y125346*
X58713*
X59650Y125659*
X60275Y126283*
X60587Y126909*
D02*
D25*
X48900Y37346D02*
Y42646D01*
X36600*
Y37346*
X48900*
Y42346D02*
Y47646D01*
X36600*
Y42346*
X48900*
Y47346D02*
Y52646D01*
X36600*
Y47346*
X48900*
Y52346D02*
Y57646D01*
X36600*
Y52346*
X48900*
Y57346D02*
Y62646D01*
X36600*
Y57346*
X48900*
X51400Y87346D02*
Y92646D01*
X39100*
Y87346*
X51400*
Y92346D02*
Y97646D01*
X39100*
Y92346*
X51400*
Y117346D02*
Y122646D01*
X39100*
Y117346*
X51400*
X51600Y32646D02*
Y27346D01*
X63900*
Y32646*
X51600*
Y37646D02*
Y32346D01*
X63900*
Y37646*
X51600*
Y42646D02*
Y37346D01*
X63900*
Y42646*
X51600*
Y47646D02*
Y42346D01*
X63900*
Y47646*
X51600*
Y52646D02*
Y47346D01*
X63900*
Y52646*
X51600*
Y57646D02*
Y52346D01*
X63900*
Y57646*
X51600*
Y62646D02*
Y57346D01*
X63900*
Y62646*
X51600*
Y97646D02*
Y92346D01*
X63900*
Y97646*
X51600*
Y122646D02*
Y117346D01*
X63900*
Y122646*
X51600*
X0Y0D02*
M02*
