G04 DesignSpark PCB Gerber Version 9.0 Build 5115 *
G04 #@! TF.Part,Single*
G04 #@! TF.FileFunction,Soldermask,Bot *
G04 #@! TF.FilePolarity,Negative *
%FSLAX35Y35*%
%MOIN*%
G04 #@! TA.AperFunction,SMDPad,CuDef*
%ADD21R,0.04940X0.05330*%
G04 #@! TA.AperFunction,ComponentPad*
%ADD16R,0.07000X0.07000*%
G04 #@! TA.AperFunction,SMDPad,CuDef*
%ADD22R,0.05291X0.04937*%
X0Y0D02*
D02*
D16*
X20250Y19996D03*
Y29996D03*
Y44996D03*
Y54996D03*
Y84996D03*
Y94996D03*
Y104996D03*
Y114996D03*
Y124996D03*
Y134996D03*
X27750Y39996D03*
Y49996D03*
Y59996D03*
Y69996D03*
Y79996D03*
Y89996D03*
Y99996D03*
Y109996D03*
Y119996D03*
Y129996D03*
X72750Y19996D03*
Y29996D03*
Y39996D03*
Y49996D03*
Y59996D03*
Y69996D03*
Y84996D03*
Y94996D03*
Y104996D03*
Y114996D03*
Y124996D03*
Y134996D03*
X80250Y24996D03*
Y34996D03*
Y44996D03*
Y54996D03*
Y64996D03*
Y74996D03*
Y99996D03*
Y109996D03*
Y119996D03*
Y129996D03*
D02*
D21*
X39250Y39996D03*
Y44996D03*
Y49996D03*
Y54996D03*
Y59996D03*
X41750Y89996D03*
Y94996D03*
Y119996D03*
X46250Y39996D03*
Y44996D03*
Y49996D03*
Y54996D03*
Y59996D03*
X48750Y89996D03*
Y94996D03*
Y119996D03*
X54250Y29996D03*
Y34996D03*
Y39996D03*
Y44996D03*
Y49996D03*
Y54996D03*
Y59996D03*
Y94996D03*
Y119996D03*
X61250Y29996D03*
Y34996D03*
Y39996D03*
Y44996D03*
Y49996D03*
Y54996D03*
Y59996D03*
Y94996D03*
Y119996D03*
D02*
D22*
X41750Y99996D03*
Y104996D03*
Y109996D03*
Y114996D03*
X48750Y99996D03*
Y104996D03*
Y109996D03*
Y114996D03*
X54250Y99996D03*
Y104996D03*
Y109996D03*
Y114996D03*
X61250Y99996D03*
Y104996D03*
Y109996D03*
Y114996D03*
X0Y0D02*
M02*
