G05
M48
INCH,TZ
FMAT,2
T1C000.03500
%
T001
X0.20250Y0.19996
X0.20250Y0.29996
X0.20250Y0.44996
X0.20250Y0.54996
X0.20250Y0.84996
X0.20250Y0.94996
X0.20250Y1.04996
X0.20250Y1.14996
X0.20250Y1.24996
X0.20250Y1.34996
X0.27750Y0.39996
X0.27750Y0.49996
X0.27750Y0.59996
X0.27750Y0.69996
X0.27750Y0.79996
X0.27750Y0.89996
X0.27750Y0.99996
X0.27750Y1.09996
X0.27750Y1.19996
X0.27750Y1.29996
X0.72750Y0.19996
X0.72750Y0.29996
X0.72750Y0.39996
X0.72750Y0.49996
X0.72750Y0.59996
X0.72750Y0.69996
X0.72750Y0.84996
X0.72750Y0.94996
X0.72750Y1.04996
X0.72750Y1.14996
X0.72750Y1.24996
X0.72750Y1.34996
X0.80250Y0.24996
X0.80250Y0.34996
X0.80250Y0.44996
X0.80250Y0.54996
X0.80250Y0.64996
X0.80250Y0.74996
X0.80250Y0.99996
X0.80250Y1.09996
X0.80250Y1.19996
X0.80250Y1.29996
M30
