G04 DesignSpark PCB Gerber Version 9.0 Build 5115 *
G04 #@! TF.Part,Single*
G04 #@! TF.FileFunction,Drillmap *
G04 #@! TF.FilePolarity,Positive *
%FSLAX35Y35*%
%MOIN*%
%ADD19C,0.00500*%
G04 #@! TA.AperFunction,ComponentPad*
%ADD26C,0.10000*%
X0Y0D02*
D02*
D19*
X30250Y25933D02*
X31813Y29683D01*
X33375Y25933*
X30875Y27496D02*
X32750D01*
X30250Y35933D02*
X31813Y39683D01*
X33375Y35933*
X30875Y37496D02*
X32750D01*
X30250Y50933D02*
X31813Y54683D01*
X33375Y50933*
X30875Y52496D02*
X32750D01*
X30250Y60933D02*
X31813Y64683D01*
X33375Y60933*
X30875Y62496D02*
X32750D01*
X30250Y90933D02*
X31813Y94683D01*
X33375Y90933*
X30875Y92496D02*
X32750D01*
X30250Y100933D02*
X31813Y104683D01*
X33375Y100933*
X30875Y102496D02*
X32750D01*
X30250Y110933D02*
X31813Y114683D01*
X33375Y110933*
X30875Y112496D02*
X32750D01*
X30250Y120933D02*
X31813Y124683D01*
X33375Y120933*
X30875Y122496D02*
X32750D01*
X30250Y130933D02*
X31813Y134683D01*
X33375Y130933*
X30875Y132496D02*
X32750D01*
X30250Y140933D02*
X31813Y144683D01*
X33375Y140933*
X30875Y142496D02*
X32750D01*
X37750Y45933D02*
X39313Y49683D01*
X40875Y45933*
X38375Y47496D02*
X40250D01*
X37750Y55933D02*
X39313Y59683D01*
X40875Y55933*
X38375Y57496D02*
X40250D01*
X37750Y65933D02*
X39313Y69683D01*
X40875Y65933*
X38375Y67496D02*
X40250D01*
X37750Y75933D02*
X39313Y79683D01*
X40875Y75933*
X38375Y77496D02*
X40250D01*
X37750Y85933D02*
X39313Y89683D01*
X40875Y85933*
X38375Y87496D02*
X40250D01*
X37750Y95933D02*
X39313Y99683D01*
X40875Y95933*
X38375Y97496D02*
X40250D01*
X37750Y105933D02*
X39313Y109683D01*
X40875Y105933*
X38375Y107496D02*
X40250D01*
X37750Y115933D02*
X39313Y119683D01*
X40875Y115933*
X38375Y117496D02*
X40250D01*
X37750Y125933D02*
X39313Y129683D01*
X40875Y125933*
X38375Y127496D02*
X40250D01*
X37750Y135933D02*
X39313Y139683D01*
X40875Y135933*
X38375Y137496D02*
X40250D01*
X82750Y25933D02*
X84313Y29683D01*
X85875Y25933*
X83375Y27496D02*
X85250D01*
X82750Y35933D02*
X84313Y39683D01*
X85875Y35933*
X83375Y37496D02*
X85250D01*
X82750Y45933D02*
X84313Y49683D01*
X85875Y45933*
X83375Y47496D02*
X85250D01*
X82750Y55933D02*
X84313Y59683D01*
X85875Y55933*
X83375Y57496D02*
X85250D01*
X82750Y65933D02*
X84313Y69683D01*
X85875Y65933*
X83375Y67496D02*
X85250D01*
X82750Y75933D02*
X84313Y79683D01*
X85875Y75933*
X83375Y77496D02*
X85250D01*
X82750Y90933D02*
X84313Y94683D01*
X85875Y90933*
X83375Y92496D02*
X85250D01*
X82750Y100933D02*
X84313Y104683D01*
X85875Y100933*
X83375Y102496D02*
X85250D01*
X82750Y110933D02*
X84313Y114683D01*
X85875Y110933*
X83375Y112496D02*
X85250D01*
X82750Y120933D02*
X84313Y124683D01*
X85875Y120933*
X83375Y122496D02*
X85250D01*
X82750Y130933D02*
X84313Y134683D01*
X85875Y130933*
X83375Y132496D02*
X85250D01*
X82750Y140933D02*
X84313Y144683D01*
X85875Y140933*
X83375Y142496D02*
X85250D01*
X90250Y30933D02*
X91813Y34683D01*
X93375Y30933*
X90875Y32496D02*
X92750D01*
X90250Y40933D02*
X91813Y44683D01*
X93375Y40933*
X90875Y42496D02*
X92750D01*
X90250Y50933D02*
X91813Y54683D01*
X93375Y50933*
X90875Y52496D02*
X92750D01*
X90250Y60933D02*
X91813Y64683D01*
X93375Y60933*
X90875Y62496D02*
X92750D01*
X90250Y70933D02*
X91813Y74683D01*
X93375Y70933*
X90875Y72496D02*
X92750D01*
X90250Y80933D02*
X91813Y84683D01*
X93375Y80933*
X90875Y82496D02*
X92750D01*
X90250Y105933D02*
X91813Y109683D01*
X93375Y105933*
X90875Y107496D02*
X92750D01*
X90250Y115933D02*
X91813Y119683D01*
X93375Y115933*
X90875Y117496D02*
X92750D01*
X90250Y125933D02*
X91813Y129683D01*
X93375Y125933*
X90875Y127496D02*
X92750D01*
X90250Y135933D02*
X91813Y139683D01*
X93375Y135933*
X90875Y137496D02*
X92750D01*
D02*
D26*
X20250Y19996D03*
Y29996D03*
Y44996D03*
Y54996D03*
Y84996D03*
Y94996D03*
Y104996D03*
Y114996D03*
Y124996D03*
Y134996D03*
X27750Y39996D03*
Y49996D03*
Y59996D03*
Y69996D03*
Y79996D03*
Y89996D03*
Y99996D03*
Y109996D03*
Y119996D03*
Y129996D03*
X72750Y19996D03*
Y29996D03*
Y39996D03*
Y49996D03*
Y59996D03*
Y69996D03*
Y84996D03*
Y94996D03*
Y104996D03*
Y114996D03*
Y124996D03*
Y134996D03*
X80250Y24996D03*
Y34996D03*
Y44996D03*
Y54996D03*
Y64996D03*
Y74996D03*
Y99996D03*
Y109996D03*
Y119996D03*
Y129996D03*
X0Y0D02*
M02*
