G04 DesignSpark PCB Gerber Version 9.0 Build 5115 *
G04 #@! TF.Part,Single*
G04 #@! TF.FileFunction,Copper,L2,Bot *
G04 #@! TF.FilePolarity,Positive *
%FSLAX35Y35*%
%MOIN*%
G04 #@! TA.AperFunction,SMDPad,CuDef*
%ADD71R,0.03940X0.04330*%
G04 #@! TA.AperFunction,ComponentPad*
%ADD13R,0.06000X0.06000*%
G04 #@! TD.AperFunction*
%ADD10C,0.01000*%
G04 #@! TA.AperFunction,SMDPad,CuDef*
%ADD20R,0.04291X0.03937*%
X0Y0D02*
D02*
D10*
X20250Y44996D02*
X39250D01*
X20250Y54996D02*
X39250D01*
X27750Y39996D02*
X39250D01*
X27750Y49996D02*
X39250D01*
X27750Y119996D02*
Y129996D01*
X39250Y59996D02*
X27750D01*
X41750Y89996D02*
X27750D01*
X41750Y94996D02*
X20250D01*
X41750Y99996D02*
X27750D01*
X41750Y104996D02*
X20250D01*
X41750Y109996D02*
X27750D01*
X41750Y114996D02*
X20250D01*
X41750Y119996D02*
X27750D01*
X46250Y39996D02*
X54250D01*
X46250D02*
Y44996D01*
Y39996D02*
Y35996D01*
X42750Y32496*
X22750*
X20250Y29996*
X46250Y44996D02*
Y49996D01*
Y54996*
Y59996D02*
Y54996D01*
X48750Y89996D02*
Y94996D01*
Y99996*
Y104996*
Y109996*
Y114996*
X54250*
X48750Y119996D02*
Y114996D01*
X54250Y29996D02*
Y34996D01*
Y39996D02*
Y34996D01*
Y39996D02*
Y44996D01*
Y49996*
Y54996*
Y59996D02*
Y54996D01*
Y94996D02*
Y99996D01*
Y104996*
Y109996*
Y114996*
X70250*
Y122496*
X54250Y119996D02*
Y114996D01*
X61250Y29996D02*
X72750D01*
X61250Y59996D02*
X72750D01*
X61250Y94996D02*
X72750D01*
X61250Y109996D02*
X80250D01*
X61250Y114996D02*
X72750D01*
X70250Y122496D02*
X72750Y124996D01*
Y39996D02*
X61250D01*
X72750Y49996D02*
X61250D01*
X72750Y69996D02*
Y59996D01*
Y104996D02*
X61250D01*
X72750Y134996D02*
X57750D01*
X55250Y132496*
Y120996*
X54250Y119996*
X80250Y34996D02*
X61250D01*
X80250Y44996D02*
X61250D01*
X80250Y54996D02*
X61250D01*
X80250Y99996D02*
X61250D01*
X80250Y129996D02*
X67750D01*
Y119996*
X61250*
D02*
D13*
X20250Y19996D03*
Y29996D03*
Y44996D03*
Y54996D03*
Y84996D03*
Y94996D03*
Y104996D03*
Y114996D03*
Y124996D03*
Y134996D03*
X27750Y39996D03*
Y49996D03*
Y59996D03*
Y69996D03*
Y79996D03*
Y89996D03*
Y99996D03*
Y109996D03*
Y119996D03*
Y129996D03*
X72750Y19996D03*
Y29996D03*
Y39996D03*
Y49996D03*
Y59996D03*
Y69996D03*
Y84996D03*
Y94996D03*
Y104996D03*
Y114996D03*
Y124996D03*
Y134996D03*
X80250Y24996D03*
Y34996D03*
Y44996D03*
Y54996D03*
Y64996D03*
Y74996D03*
Y99996D03*
Y109996D03*
Y119996D03*
Y129996D03*
D02*
D71*
X39250Y39996D03*
Y44996D03*
Y49996D03*
Y54996D03*
Y59996D03*
X41750Y89996D03*
Y94996D03*
Y119996D03*
X46250Y39996D03*
Y44996D03*
Y49996D03*
Y54996D03*
Y59996D03*
X48750Y89996D03*
Y94996D03*
Y119996D03*
X54250Y29996D03*
Y34996D03*
Y39996D03*
Y44996D03*
Y49996D03*
Y54996D03*
Y59996D03*
Y94996D03*
Y119996D03*
X61250Y29996D03*
Y34996D03*
Y39996D03*
Y44996D03*
Y49996D03*
Y54996D03*
Y59996D03*
Y94996D03*
Y119996D03*
D02*
D20*
X41750Y99996D03*
Y104996D03*
Y109996D03*
Y114996D03*
X48750Y99996D03*
Y104996D03*
Y109996D03*
Y114996D03*
X54250Y99996D03*
Y104996D03*
Y109996D03*
Y114996D03*
X61250Y99996D03*
Y104996D03*
Y109996D03*
Y114996D03*
X0Y0D02*
M02*
